<?xml version="1.0" encoding="UTF-8" standalone="no"?>
<svg
   xml:space="preserve"
   viewBox="0 0 1155 1155"
   version="1.1"
   id="svg8"
   sodipodi:docname="snaplogo.svg"
   inkscape:version="1.3 (0e150ed6c4, 2023-07-21)"
   xmlns:inkscape="http://www.inkscape.org/namespaces/inkscape"
   xmlns:sodipodi="http://sodipodi.sourceforge.net/DTD/sodipodi-0.dtd"
   xmlns:xlink="http://www.w3.org/1999/xlink"
   xmlns="http://www.w3.org/2000/svg"
   xmlns:svg="http://www.w3.org/2000/svg"><sodipodi:namedview
     id="namedview8"
     pagecolor="#ffffff"
     bordercolor="#000000"
     borderopacity="0.25"
     inkscape:showpageshadow="2"
     inkscape:pageopacity="0.0"
     inkscape:pagecheckerboard="0"
     inkscape:deskcolor="#d1d1d1"
     inkscape:zoom="0.50262742"
     inkscape:cx="115.39363"
     inkscape:cy="743.09516"
     inkscape:window-width="1920"
     inkscape:window-height="1017"
     inkscape:window-x="-8"
     inkscape:window-y="-8"
     inkscape:window-maximized="1"
     inkscape:current-layer="svg8" /><defs
     id="defs2"><radialGradient
       xlink:href="#a"
       id="b"
       cx="1640.912"
       cy="1385.9913"
       r="157.5"
       fx="1640.912"
       fy="1385.9913"
       gradientTransform="translate(1463.0685,-431.79584)"
       gradientUnits="userSpaceOnUse" /><linearGradient
       id="a"><stop
         offset="0"
         stop-color="#ffa459"
         id="stop1" /><stop
         offset="1"
         stop-color="#f97316"
         id="stop2" /></linearGradient></defs><g
     transform="matrix(3.640095,0,0,3.640095,-10721.284,-2895.8623)"
     id="g8"><circle
       cx="3103.9805"
       cy="954.1955"
       r="157.5"
       fill="url(#b)"
       fill-rule="evenodd"
       id="circle3"
       style="fill:url(#b)" /><g
       fill="#ffffff"
       id="g5"><path
         d="m 3171.9691,889.6553 c -4.7448,0 -8.6045,-3.78327 -8.6045,-8.42934 v -14.58909 c 0,-1.45143 0.3773,-2.81733 1.0379,-4.01249 0.638,-1.1502 1.5411,-2.13878 2.6287,-2.88461 1.397,-0.96154 3.1,-1.52783 4.9332,-1.52783 h 14.2523 c 4.7404,0 8.6001,3.77886 8.6001,8.42461 v 14.5891 c 0,4.64575 -3.8594,8.42933 -8.6001,8.42933 h -14.2476 z"
         id="path4" /><path
         d="m 3215.7746,885.83461 v -23.82327 c 0,-13.65302 -11.2399,-24.76165 -25.0485,-24.76165 h -23.2715 c -13.8078,0 -25.0478,11.10862 -25.0478,24.76164 v 48.6062 l 48.3193,-0.0147 c 13.8086,0 25.0485,-11.1079 25.0485,-24.76825 z m -11.0051,0 c 0,7.58917 -6.2994,13.7638 -14.0463,13.7638 l -37.3112,0.011 v -37.59808 c 0,-7.5855 6.2993,-13.75647 14.0426,-13.75647 h 23.2715 c 7.744,0 14.0434,6.17097 14.0434,13.75647 z"
         id="path5" /></g><g
       fill="#ffffff"
       id="g7"><path
         d="m 3037.6484,1021.5761 c 4.7448,0 8.6045,3.7833 8.6045,8.4294 v 14.589 c 0,1.4515 -0.3773,2.8174 -1.0379,4.0125 -0.638,1.1502 -1.5411,2.1388 -2.6287,2.8846 -1.397,0.9616 -3.1,1.5279 -4.9332,1.5279 h -14.2523 c -4.7404,0 -8.6001,-3.7789 -8.6001,-8.4246 v -14.5891 c 0,-4.6458 3.8594,-8.4294 8.6001,-8.4294 h 14.2476 z"
         id="path6" /><path
         d="m 2993.8429,1025.3968 v 23.8233 c 0,13.653 11.2399,24.7616 25.0485,24.7616 h 23.2715 c 13.8078,0 25.0478,-11.1086 25.0478,-24.7616 v -48.6062 l -48.3193,0.015 c -13.8086,0 -25.0485,11.1079 -25.0485,24.7682 z m 11.0051,0 c 0,-7.5892 6.2994,-13.7638 14.0463,-13.7638 l 37.3112,-0.011 v 37.5981 c 0,7.5855 -6.2993,13.7565 -14.0426,13.7565 h -23.2715 c -7.744,0 -14.0434,-6.171 -14.0434,-13.7565 z"
         id="path7" /></g><path
       fill="#ffffff"
       fill-rule="evenodd"
       stroke="#f97417"
       stroke-linecap="round"
       stroke-linejoin="round"
       stroke-miterlimit="5"
       stroke-width="0.940274"
       d="m 3044.709,841.23633 c -2.4573,0 -4.8362,0.0967 -7.1367,0.29101 -1.1503,0.0972 -2.2796,0.21754 -3.3907,0.36328 -1.111,0.14575 -2.2034,0.3174 -3.2753,0.51172 -1.072,0.19433 -2.1236,0.4114 -3.1563,0.6543 -1.0327,0.2429 -2.0455,0.51125 -3.0391,0.80273 -0.9935,0.29149 -1.9675,0.60721 -2.9218,0.94727 -0.9544,0.34007 -1.8895,0.70511 -2.8047,1.09375 -0.9027,0.38865 -1.7799,0.79679 -2.6309,1.22461 -0.8509,0.42782 -1.6754,0.8748 -2.4746,1.3418 -0.7992,0.467 -1.5728,0.9528 -2.3203,1.45898 -0.7475,0.50618 -1.4702,1.03277 -2.166,1.57813 -0.6958,0.54535 -1.3657,1.11077 -2.0098,1.69531 -0.6441,0.58453 -1.2611,1.18879 -1.8535,1.8125 -0.5924,0.62371 -1.1605,1.2668 -1.7012,1.92969 -0.5406,0.66289 -1.054,1.3448 -1.5429,2.04687 -0.4764,0.70207 -0.923,1.41739 -1.3399,2.14453 -0.4168,0.72715 -0.8048,1.46654 -1.1621,2.21875 -0.3573,0.75222 -0.6847,1.51568 -0.9824,2.29297 -0.2978,0.77729 -0.5665,1.56873 -0.8047,2.37109 -0.2382,0.80237 -0.4464,1.61593 -0.625,2.44336 -0.1787,0.82744 -0.3262,1.66702 -0.4453,2.51954 -0.1191,0.85251 -0.21,1.71811 -0.2695,2.5957 -0.06,0.87758 -0.088,1.76726 -0.088,2.66992 0,0.86505 0.027,1.71435 0.08,2.54492 0.053,0.83057 0.1318,1.64336 0.2383,2.43946 0.1066,0.79609 0.2406,1.57431 0.4004,2.33593 0.1599,0.76162 0.3455,1.50724 0.5586,2.23438 0.2131,0.72714 0.4543,1.43624 0.7207,2.1289 0.2664,0.69267 0.5592,1.36916 0.8789,2.02735 0.3197,0.65819 0.6661,1.29816 1.0391,1.92187 0.3729,0.62372 0.7729,1.23108 1.1992,1.82032 0.8776,1.15339 1.7948,2.24695 2.7539,3.28125 0.9591,1.03429 1.9594,2.00863 3,2.92382 1.0406,0.9152 2.1221,1.77031 3.2441,2.56641 1.1221,0.7961 2.2848,1.53394 3.4883,2.21094 1.2286,0.67699 2.5451,1.36279 3.9492,2.05859 1.4042,0.6958 2.895,1.40063 4.4747,2.11524 3.1593,1.42921 6.6698,2.89595 10.5312,4.40039 3.0089,1.20354 5.6798,2.31962 8.0117,3.34765 2.3319,1.02803 4.3256,1.96781 5.9805,2.82031 0.8274,0.40119 1.6204,0.83147 2.3789,1.28907 0.7585,0.4576 1.4823,0.94301 2.1719,1.45703 0.6895,0.51401 1.3442,1.05652 1.9648,1.62695 0.6206,0.57043 1.2062,1.16808 1.7578,1.79492 0.5517,0.60178 1.0355,1.23594 1.4492,1.90039 0.4138,0.66446 0.7574,1.36075 1.0332,2.08789 0.2759,0.72715 0.4832,1.48557 0.6211,2.2754 0.1379,0.78982 0.2071,1.61037 0.2071,2.46289 0,0.68953 -0.038,1.35979 -0.1133,2.01171 -0.075,0.65193 -0.1875,1.28609 -0.3379,1.9004 -0.1504,0.61431 -0.3388,1.20845 -0.5645,1.78515 -0.2256,0.5767 -0.4881,1.13474 -0.789,1.67383 -0.3009,0.53909 -0.6395,1.05907 -1.0156,1.56055 -0.3761,0.50147 -0.7909,0.98535 -1.2422,1.44922 -0.4514,0.46386 -0.9403,0.90772 -1.4668,1.33398 -0.5266,0.42626 -1.0897,0.83401 -1.6914,1.22266 -0.6018,0.3761 -1.2329,0.7295 -1.8926,1.05859 -0.6598,0.32909 -1.3487,0.63393 -2.0664,0.91602 -0.7178,0.28208 -1.4645,0.54032 -2.2402,0.77539 -0.7758,0.23506 -1.5804,0.44671 -2.4141,0.63476 -0.8337,0.18806 -1.6962,0.3531 -2.5879,0.49414 -0.8917,0.14104 -1.814,0.25949 -2.7637,0.35352 -1.8993,0.18805 -3.9136,0.28125 -6.0449,0.28125 -2.0561,0 -3.9997,-0.0691 -5.8301,-0.20703 -1.8304,-0.13791 -3.5476,-0.34528 -5.1523,-0.6211 -1.6047,-0.27581 -3.0975,-0.61948 -4.4766,-1.0332 -1.379,-0.41372 -2.6454,-0.89564 -3.7988,-1.44727 -0.5642,-0.27581 -1.0923,-0.57095 -1.5859,-0.88281 -0.4937,-0.31185 -0.9519,-0.64038 -1.375,-0.98828 -0.4232,-0.3479 -0.8115,-0.71566 -1.1641,-1.09961 -0.3526,-0.38394 -0.6691,-0.78509 -0.9512,-1.20508 -0.2821,-0.41998 -0.5287,-0.85842 -0.7402,-1.31445 -0.2116,-0.45603 -0.3883,-0.9298 -0.5293,-1.42188 -0.1411,-0.49207 -0.2479,-1.00117 -0.3184,-1.52929 -0.07,-0.52812 -0.1054,-1.07451 -0.1054,-1.63867 0,-1.10326 0.05,-2.15721 0.1504,-3.16016 0.2005,-1.00295 0.3007,-1.70429 0.3007,-2.10547 0.1505,-0.75221 0.2646,-1.56773 0.3399,-2.44531 0.075,-0.87759 0.1113,-1.81736 0.1113,-2.82031 0,-0.55163 -0.052,-1.0786 -0.1582,-1.58008 -0.1066,-0.50148 -0.2673,-0.97836 -0.4805,-1.42969 -0.2131,-0.45133 -0.4791,-0.87616 -0.7988,-1.27734 -0.3197,-0.40119 -0.6929,-0.77787 -1.1191,-1.12891 -0.4263,-0.35103 -0.8841,-0.6586 -1.3731,-0.92187 -0.4889,-0.26328 -1.0089,-0.48269 -1.5605,-0.65821 -0.5517,-0.17551 -1.1357,-0.30677 -1.75,-0.39453 -0.6143,-0.0878 -1.2586,-0.13281 -1.9356,-0.13281 -0.9277,0 -1.8003,0.0917 -2.6152,0.27344 -0.8149,0.18178 -1.5733,0.45478 -2.2754,0.81836 -0.351,0.18178 -0.6869,0.38605 -1.0098,0.61328 -0.3228,0.22723 -0.6311,0.47732 -0.9257,0.75 -0.5893,0.54535 -1.1232,1.18106 -1.5997,1.9082 -0.4764,0.72714 -0.8927,1.53566 -1.25,2.42578 -0.3573,0.89012 -0.6543,1.86291 -0.8925,2.91602 -0.2382,1.0531 -0.418,2.18626 -0.5371,3.40234 -0.1191,1.21608 -0.1778,2.51547 -0.1778,3.89453 0,1.30384 0.062,2.56437 0.1875,3.78516 0.1254,1.22078 0.3137,2.40133 0.5645,3.53906 0.2507,1.13773 0.5633,2.23439 0.9394,3.28906 0.3761,1.05467 0.815,2.06745 1.3164,3.03907 0.5015,0.97161 1.0665,1.9005 1.6934,2.78906 0.6268,0.88855 1.3161,1.73552 2.0684,2.54101 0.7522,0.8055 1.5677,1.57053 2.4453,2.29297 0.8775,0.72244 1.8173,1.40359 2.8203,2.04297 1.0029,0.62685 2.0468,1.21323 3.1328,1.76172 1.086,0.54849 2.2137,1.05916 3.3828,1.5293 1.1691,0.47013 2.3807,0.90119 3.6328,1.29297 1.2521,0.39177 2.5457,0.74321 3.8809,1.05664 1.3352,0.31342 2.7106,0.58915 4.1289,0.82421 1.4182,0.23507 2.8795,0.42923 4.3808,0.58594 1.5013,0.15671 3.0426,0.27516 4.627,0.35352 1.5843,0.0784 3.2115,0.11719 4.8789,0.11719 1.8805,0 3.7131,-0.0497 5.498,-0.14844 1.785,-0.0987 3.5216,-0.2459 5.211,-0.44336 1.6893,-0.19746 3.332,-0.44405 4.9258,-0.74024 1.5937,-0.29618 3.1385,-0.64219 4.6367,-1.03711 1.4981,-0.39491 2.949,-0.83838 4.3515,-1.33203 1.4026,-0.49364 2.7575,-1.03849 4.0645,-1.63086 1.307,-0.59237 2.566,-1.23273 3.7773,-1.92382 1.2114,-0.6911 2.3745,-1.43283 3.4903,-2.22266 1.1283,-0.80236 2.1865,-1.64621 3.1738,-2.5332 0.9873,-0.88699 1.9038,-1.8155 2.75,-2.78711 0.8462,-0.97162 1.6229,-1.98673 2.3281,-3.04297 0.7052,-1.05624 1.3402,-2.15406 1.9043,-3.29492 0.065,-0.13188 0.1086,-0.27715 0.1719,-0.41016 0.082,-0.0751 0.17,-0.17279 0.252,-0.24609 0.8034,-0.71891 1.5864,-1.35259 2.3476,-1.90235 0.7824,-0.5709 1.5356,-1.07182 2.2598,-1.5 0.7242,-0.42817 1.4179,-0.78486 2.084,-1.07031 0.666,-0.28545 1.3042,-0.49985 1.9121,-0.64258 0.6079,-0.14272 1.1865,-0.21289 1.7363,-0.21289 0.3489,0 0.6752,0.0284 0.9805,0.0879 0.3052,0.0595 0.5899,0.14864 0.8515,0.26758 0.2617,0.11894 0.5007,0.26886 0.7188,0.44727 0.218,0.1784 0.4154,0.38712 0.5898,0.625 0.1745,0.23787 0.3262,0.50539 0.4571,0.80273 0.1308,0.29734 0.2389,0.62366 0.3261,0.98047 0.1745,0.71362 0.2617,1.54655 0.2617,2.49805 0,2.02986 -0.095,4.31227 -0.2851,6.84961 -0.1903,2.53733 -0.4749,5.3302 -0.8555,8.375 -0.6343,4.86321 -1.385,10.16863 -2.2519,15.91992 -0.8669,5.75128 -1.8498,11.94853 -2.9493,18.58789 -1.2686,7.18906 -2.1989,12.85566 -2.791,16.99996 -0.2537,2.0299 -0.4454,3.8784 -0.5722,5.5489 -0.1269,1.6704 -0.1895,3.1616 -0.1895,4.4726 0,0.9727 0.042,1.8682 0.127,2.6875 0.085,0.8194 0.2117,1.5625 0.3808,2.2285 0.1692,0.6661 0.3791,1.2568 0.6328,1.7696 0.2538,0.5127 0.5504,0.9472 0.8887,1.3066 0.3383,0.3383 0.7323,0.6349 1.1817,0.8887 0.4493,0.2537 0.9533,0.4656 1.5136,0.6347 0.5603,0.1692 1.1763,0.2963 1.8477,0.3809 0.6713,0.085 1.3993,0.127 2.1816,0.127 0.8246,0 1.5804,-0.055 2.2676,-0.1602 0.6872,-0.1057 1.3057,-0.2632 1.8555,-0.4746 0.5497,-0.2115 1.031,-0.4758 1.4433,-0.793 0.4123,-0.3172 0.7564,-0.6865 1.0313,-1.1094 0.296,-0.4228 0.573,-0.9288 0.832,-1.5156 0.259,-0.5867 0.4987,-1.2552 0.7207,-2.0058 0.222,-0.7507 0.4263,-1.5836 0.6113,-2.4981 0.1851,-0.9145 0.352,-1.9099 0.5,-2.9883 0.6978,-5.0958 1.4364,-9.9289 2.2188,-14.4961 0.7823,-4.5672 1.6077,-8.8696 2.4746,-12.90816 0.8669,-4.03859 1.7751,-7.81229 2.7266,-11.32226 0.4757,-1.75499 0.962,-3.44358 1.4589,-5.06641 0.4969,-1.62284 1.0054,-3.17924 1.5235,-4.66992 1.0572,-3.00251 2.1197,-5.77574 3.1875,-8.31836 1.0678,-2.54262 2.1404,-4.85477 3.2187,-6.9375 0.5392,-1.04137 1.0793,-2.02674 1.6211,-2.95313 0.5418,-0.92639 1.0864,-1.79405 1.6309,-2.60547 0.5444,-0.81141 1.0896,-1.56527 1.6367,-2.26171 0.5471,-0.69645 1.0948,-1.3365 1.6445,-1.91797 1.0995,-1.18409 2.1918,-2.21936 3.2754,-3.10743 0.5419,-0.44403 1.0813,-0.85067 1.6192,-1.2207 0.5378,-0.37003 1.0735,-0.70398 1.6074,-1 0.5339,-0.29602 1.0658,-0.55533 1.5957,-0.77734 0.5299,-0.22202 1.058,-0.40668 1.584,-0.55469 0.5259,-0.14801 1.0502,-0.25803 1.5722,-0.33203 0.522,-0.074 1.0425,-0.11133 1.5606,-0.11133 0.6132,0 1.1868,0.0474 1.7207,0.14258 0.5339,0.0951 1.0278,0.23743 1.4824,0.42773 0.4546,0.1903 0.8708,0.42745 1.2461,0.71289 0.3753,0.28545 0.7098,0.61941 1.0059,1 0.3171,0.3806 0.5941,0.81446 0.832,1.30079 0.2379,0.48632 0.4371,1.02514 0.5957,1.61718 0.1586,0.59205 0.2781,1.23583 0.3574,1.9336 0.079,0.69776 0.1172,1.44846 0.1172,2.25195 0,1.48011 -0.1201,3.41537 -0.3633,5.80469 -0.2431,2.38932 -0.6094,5.23271 -1.0957,8.53125 -0.4863,3.29853 -1.0928,7.05202 -1.8222,11.25976 -0.7295,4.20775 -1.5821,8.87133 -2.5547,13.98828 -1.4378,7.61201 -2.6204,14.25121 -3.5508,19.91801 -0.4652,2.791 -0.8143,5.3176 -1.0469,7.58 -0.2326,2.2625 -0.3496,4.2603 -0.3496,5.9942 0,0.9303 0.04,1.786 0.1191,2.5683 0.079,0.7824 0.1989,1.4907 0.3575,2.125 0.1586,0.6344 0.3558,1.1953 0.5937,1.6817 0.2379,0.4863 0.5168,0.898 0.834,1.2363 0.3383,0.3383 0.7228,0.6349 1.1563,0.8887 0.4334,0.2537 0.9147,0.4656 1.4433,0.6347 0.5286,0.1692 1.1048,0.2963 1.7285,0.3809 0.6238,0.085 1.2948,0.127 2.0137,0.127 0.8246,0 1.5924,-0.055 2.3008,-0.1602 0.7083,-0.1057 1.3572,-0.2632 1.9492,-0.4746 0.592,-0.2115 1.1258,-0.4758 1.6016,-0.793 0.4757,-0.3172 0.8944,-0.6865 1.2539,-1.1094 0.3806,-0.444 0.7322,-0.9923 1.0547,-1.6425 0.3224,-0.6502 0.6146,-1.4035 0.8789,-2.2598 0.2643,-0.8564 0.5008,-1.8164 0.707,-2.8789 0.2062,-1.0625 0.3832,-2.2274 0.5312,-3.4961 0.6132,-4.7364 1.2716,-9.2507 1.9747,-13.543 0.703,-4.2923 1.4512,-8.3626 2.2441,-12.2109 0.7929,-3.84829 1.6289,-7.47465 2.5117,-10.87891 0.4414,-1.70212 0.8955,-3.34833 1.3594,-4.93945 0.4638,-1.59112 0.9375,-3.12731 1.4238,-4.60742 0.9938,-2.96022 1.9987,-5.70876 3.0137,-8.24609 1.0149,-2.53734 2.0401,-4.86408 3.0762,-6.97852 0.518,-1.05722 1.0391,-2.06022 1.5625,-3.01172 0.5233,-0.9515 1.0495,-1.85149 1.5781,-2.69726 0.5286,-0.84578 1.0598,-1.6369 1.5937,-2.37696 0.5339,-0.74005 1.0702,-1.42816 1.6094,-2.0625 1.0995,-1.28981 2.1867,-2.41936 3.2598,-3.38672 0.5365,-0.48367 1.0697,-0.92701 1.5996,-1.33007 0.5299,-0.40307 1.0567,-0.76544 1.5801,-1.0879 0.5233,-0.32245 1.0418,-0.60386 1.5586,-0.8457 0.5167,-0.24184 1.0309,-0.44424 1.541,-0.60547 0.5101,-0.16122 1.016,-0.28071 1.5195,-0.36133 0.5035,-0.0806 1.0051,-0.12109 1.502,-0.12109 0.5286,0 1.025,0.0474 1.4902,0.14258 0.4652,0.0951 0.899,0.23743 1.3008,0.42773 0.4017,0.1903 0.771,0.42745 1.1093,0.71289 0.3384,0.28545 0.6451,0.61941 0.92,1 0.296,0.35946 0.5553,0.7661 0.7773,1.22071 0.222,0.4546 0.4067,0.9561 0.5547,1.50586 0.148,0.54975 0.26,1.14806 0.334,1.79297 0.074,0.6449 0.1094,1.33806 0.1094,2.07812 0,0.84578 -0.03,1.70144 -0.094,2.56836 -0.063,0.86692 -0.1583,1.74475 -0.2851,2.63281 -0.2538,1.69156 -0.5927,3.50979 -1.0157,5.45508 -0.4228,1.94529 -0.7195,3.29739 -0.8886,4.05859 l -5.0743,23.2168 c -0.5074,2.36818 -0.9514,4.59753 -1.332,6.68555 -0.3806,2.08801 -0.6974,4.03586 -0.9512,5.84376 -0.2537,1.8078 -0.4434,3.4743 -0.5703,5.0019 -0.1268,1.5277 -0.1914,2.9166 -0.1914,4.1641 0,0.8986 0.032,1.7752 0.096,2.6289 0.064,0.8537 0.1583,1.6834 0.2852,2.4922 0.1268,0.8088 0.2862,1.5955 0.4765,2.3594 0.1903,0.7638 0.4123,1.5057 0.6661,2.2246 0.2537,0.7189 0.5383,1.4158 0.8554,2.0898 0.3172,0.674 0.6663,1.3241 1.0469,1.9531 0.3806,0.6291 0.7923,1.2362 1.2363,1.8204 0.4441,0.5841 0.9203,1.1463 1.4278,1.6855 0.5074,0.5286 1.0393,1.0238 1.5957,1.4863 0.5563,0.4626 1.1369,0.8926 1.7422,1.2891 0.6052,0.3965 1.2345,0.7594 1.8886,1.0898 0.6542,0.3304 1.3341,0.6283 2.0371,0.8926 0.7031,0.2643 1.4297,0.4951 2.1817,0.6934 0.7519,0.1982 1.5292,0.3639 2.3301,0.4961 0.8008,0.1321 1.6248,0.2308 2.4746,0.2968 0.8497,0.066 1.7244,0.1 2.623,0.1 1.1841,0 2.356,-0.077 3.5137,-0.2305 1.1576,-0.1533 2.3004,-0.3829 3.4316,-0.6895 1.1312,-0.3066 2.2507,-0.6905 3.3555,-1.1504 1.1048,-0.4599 2.1951,-0.9961 3.2734,-1.6093 1.0784,-0.6132 2.1605,-1.3165 3.2442,-2.1094 1.0836,-0.7929 2.1688,-1.6758 3.2578,-2.6484 1.0889,-0.9727 2.1811,-2.0352 3.2754,-3.1876 1.0942,-1.1523 2.1915,-2.3944 3.291,-3.7265 0.4017,-0.4863 0.7534,-1.015 1.0547,-1.586 0.3013,-0.5709 0.5511,-1.1843 0.7519,-1.8398 0.2009,-0.6555 0.3527,-1.3537 0.4532,-2.0937 0.1004,-0.7401 0.1503,-1.5211 0.1503,-2.3457 0,-0.8881 -0.085,-1.6812 -0.2539,-2.379 -0.085,-0.3488 -0.1895,-0.6752 -0.3164,-0.9765 -0.1268,-0.3013 -0.2761,-0.5783 -0.4453,-0.832 -0.148,-0.2538 -0.3105,-0.4758 -0.4902,-0.6661 -0.1797,-0.1903 -0.3765,-0.3477 -0.5879,-0.4746 -0.2115,-0.1268 -0.4385,-0.2236 -0.6816,-0.2871 -0.2432,-0.063 -0.5025,-0.094 -0.7774,-0.094 -0.3172,0 -0.6264,0.037 -0.9277,0.1113 -0.3013,0.074 -0.5935,0.184 -0.8789,0.332 -0.2855,0.148 -0.5644,0.3327 -0.834,0.5547 -0.2696,0.222 -0.5314,0.4813 -0.7852,0.7774 -0.9092,1.0783 -1.7876,2.0807 -2.6386,3.0058 -0.8511,0.9251 -1.6739,1.7732 -2.4668,2.5449 -0.793,0.7718 -1.5563,1.4675 -2.2911,2.086 -0.7347,0.6184 -1.4405,1.1598 -2.1171,1.625 -0.6555,0.4652 -1.3164,0.8718 -1.9825,1.2207 -0.666,0.3489 -1.337,0.6404 -2.0136,0.873 -0.6767,0.2326 -1.3597,0.4072 -2.0469,0.5235 -0.6872,0.1163 -1.3784,0.1738 -2.0762,0.1738 -0.7401,0 -1.4408,-0.055 -2.1015,-0.166 -0.6608,-0.111 -1.2819,-0.278 -1.8633,-0.5 -0.5815,-0.222 -1.1248,-0.499 -1.627,-0.8321 -0.5022,-0.333 -0.9638,-0.7219 -1.3867,-1.166 -0.4018,-0.444 -0.7534,-0.943 -1.0547,-1.498 -0.3013,-0.5551 -0.553,-1.166 -0.7539,-1.832 -0.2009,-0.6661 -0.3507,-1.389 -0.4512,-2.1661 -0.1004,-0.777 -0.1504,-1.608 -0.1504,-2.4961 0,-1.5224 0.105,-3.1932 0.3164,-5.0117 0.2115,-1.8184 0.5283,-3.7859 0.9512,-5.90036 l 7.7403,-36.2832 c 0.5497,-2.6642 0.9614,-5.12817 1.2363,-7.39062 0.1374,-1.13123 0.2399,-2.2114 0.3086,-3.24219 0.069,-1.03079 0.1035,-2.01105 0.1035,-2.94141 0,-0.85635 -0.024,-1.68927 -0.074,-2.49804 -0.05,-0.80878 -0.1262,-1.59427 -0.2266,-2.35547 -0.1004,-0.7612 -0.2263,-1.49927 -0.3769,-2.21289 -0.1507,-0.71363 -0.3265,-1.40231 -0.5274,-2.06836 -0.2009,-0.66605 -0.4266,-1.30926 -0.6777,-1.92774 -0.2511,-0.61847 -0.5268,-1.2123 -0.8281,-1.7832 -0.3014,-0.5709 -0.629,-1.1173 -0.9805,-1.64063 -0.3515,-0.52332 -0.7272,-1.02425 -1.1289,-1.5 -0.3912,-0.47575 -0.8055,-0.92161 -1.2403,-1.33789 -0.4347,-0.41628 -0.8907,-0.80334 -1.3691,-1.16015 -0.4784,-0.35681 -0.978,-0.68313 -1.5,-0.98047 -0.522,-0.29734 -1.0652,-0.56486 -1.6309,-0.80274 -0.5656,-0.23787 -1.1544,-0.44659 -1.7636,-0.625 -0.6093,-0.1784 -1.2398,-0.32637 -1.8926,-0.44531 -0.6528,-0.11894 -1.327,-0.20811 -2.0234,-0.26758 -0.6965,-0.0595 -1.4143,-0.0898 -2.1543,-0.0898 -0.9198,0 -1.8274,0.0399 -2.7207,0.11914 -0.8934,0.0793 -1.7737,0.19884 -2.6407,0.35742 -0.8669,0.15859 -1.72,0.35588 -2.5605,0.59375 -0.8405,0.23788 -1.6684,0.51682 -2.4824,0.83399 -0.8141,0.31716 -1.6148,0.67385 -2.4024,1.07031 -0.7876,0.39646 -1.561,0.83284 -2.3222,1.30859 -0.7612,0.47575 -1.5094,0.98988 -2.2442,1.54492 -0.7348,0.55505 -1.4577,1.15083 -2.166,1.78516 -0.7083,0.63433 -1.404,1.31923 -2.0898,2.05664 -0.6859,0.73741 -1.362,1.5267 -2.0254,2.36719 -0.6634,0.84049 -1.3142,1.73221 -1.9551,2.67578 -0.641,0.94357 -1.2722,1.93968 -1.8906,2.98633 -0.6185,1.04665 -1.2243,2.14324 -1.8204,3.29297 -0.596,1.14973 -1.1823,2.35266 -1.7558,3.60547 -0.5736,1.2528 -1.1345,2.55622 -1.6856,3.91211 -0.551,1.35588 -1.0924,2.76369 -1.6211,4.22265 0.3806,-2.07215 0.6672,-3.97514 0.8575,-5.70898 0.1903,-1.73385 0.2851,-3.29783 0.2851,-4.69336 0,-0.88807 -0.024,-1.752 -0.074,-2.58985 -0.05,-0.83784 -0.1261,-1.64987 -0.2266,-2.4375 -0.1004,-0.78763 -0.2263,-1.55165 -0.3769,-2.28906 -0.1507,-0.73741 -0.3265,-1.44952 -0.5274,-2.13672 -0.2008,-0.68719 -0.4266,-1.34935 -0.6777,-1.98633 -0.2511,-0.63697 -0.5268,-1.24917 -0.8281,-1.83593 -0.3013,-0.58676 -0.629,-1.14706 -0.9805,-1.6836 -0.3515,-0.53654 -0.7271,-1.04883 -1.1289,-1.53515 -0.3912,-0.48632 -0.8023,-0.94166 -1.2305,-1.36719 -0.4281,-0.42553 -0.8746,-0.82081 -1.3398,-1.18555 -0.4652,-0.36474 -0.949,-0.69995 -1.4512,-1.0039 -0.5022,-0.30395 -1.0213,-0.57715 -1.5605,-0.82032 -0.5392,-0.24316 -1.0977,-0.4563 -1.6738,-0.63867 -0.5762,-0.18237 -1.1701,-0.3335 -1.7832,-0.45508 -0.6132,-0.12158 -1.2463,-0.21264 -1.8965,-0.27343 -0.6502,-0.0608 -1.3187,-0.0918 -2.0059,-0.0918 -0.8986,0 -1.7878,0.043 -2.668,0.12891 -0.8801,0.0859 -1.7516,0.21492 -2.6132,0.38671 -0.8617,0.1718 -1.7135,0.38684 -2.5567,0.64454 -0.8431,0.25769 -1.6773,0.55874 -2.5019,0.90234 -0.8247,0.3436 -1.6392,0.73066 -2.4453,1.16016 -0.8062,0.42949 -1.603,0.90062 -2.3907,1.41601 -0.7876,0.5154 -1.5668,1.07449 -2.3359,1.67578 -0.7691,0.6013 -1.5287,1.24445 -2.2793,1.93164 -0.7506,0.67663 -1.4925,1.41911 -2.2246,2.22657 -0.7321,0.80745 -1.4544,1.68085 -2.168,2.61914 -0.7136,0.93828 -1.4181,1.9426 -2.1133,3.01172 -0.6951,1.06911 -1.38,2.20239 -2.0566,3.40234 -0.6766,1.19995 -1.3438,2.4661 -2.002,3.79687 -0.6581,1.33078 -1.3076,2.7259 -1.9472,4.1875 -0.6396,1.46161 -1.2695,2.9896 -1.8907,4.58204 -0.6211,1.59244 -1.2333,3.24938 -1.8359,4.97265 0.1691,-0.7612 0.4234,-2.1133 0.7617,-4.05859 0.3383,-1.94529 0.7177,-4.44153 1.1407,-7.48633 0.2114,-1.56469 0.3708,-3.02371 0.4765,-4.37695 0.1057,-1.35325 0.1582,-2.60039 0.1582,-3.74219 0,-1.41668 -0.08,-2.74857 -0.2383,-3.99609 -0.1585,-1.24753 -0.3957,-2.40992 -0.7129,-3.48829 -0.1585,-0.53918 -0.3369,-1.05779 -0.5351,-1.55468 -0.1982,-0.4969 -0.4164,-0.97313 -0.6543,-1.42774 -0.2379,-0.4546 -0.4959,-0.88651 -0.7734,-1.29883 -0.2776,-0.41231 -0.5755,-0.8038 -0.8926,-1.17382 -0.3066,-0.37003 -0.6298,-0.71725 -0.9707,-1.04102 -0.341,-0.32377 -0.6989,-0.62482 -1.0742,-0.90234 -0.3754,-0.27752 -0.7681,-0.53241 -1.1778,-0.76368 -0.4097,-0.23126 -0.8372,-0.43803 -1.2812,-0.62304 -0.4441,-0.18502 -0.9045,-0.34757 -1.3828,-0.48633 -0.4784,-0.13876 -0.9736,-0.25515 -1.4864,-0.34766 -1.0255,-0.18501 -2.1202,-0.27734 -3.2832,-0.27734 -1.2475,0 -2.4946,0.0974 -3.7422,0.29297 -1.2475,0.19558 -2.4946,0.48969 -3.7421,0.88086 -1.2476,0.39117 -2.4967,0.88004 -3.7442,1.46679 -0.6048,0.28449 -1.2096,0.66563 -1.8144,0.9961 -0.052,-0.74602 -0.1268,-1.4777 -0.2286,-2.19336 -0.1034,-0.72714 -0.2335,-1.43701 -0.3886,-2.13281 -0.1552,-0.6958 -0.3361,-1.37656 -0.543,-2.04102 -0.2069,-0.66446 -0.4387,-1.31415 -0.6973,-1.94726 -0.2585,-0.63312 -0.5432,-1.24979 -0.8535,-1.85157 -0.3103,-0.60177 -0.6458,-1.18738 -1.0078,-1.75781 -0.362,-0.57043 -0.7503,-1.12497 -1.1641,-1.66406 -0.8023,-1.07818 -1.6489,-2.10106 -2.539,-3.06641 -0.8901,-0.96534 -1.8249,-1.87405 -2.8027,-2.72656 -0.9779,-0.85251 -1.9989,-1.64899 -3.0645,-2.38867 -1.0656,-0.73968 -2.1747,-1.42198 -3.3281,-2.04883 -2.3068,-1.25369 -4.9898,-2.58415 -8.0489,-3.98828 -3.059,-1.40414 -6.4953,-2.88292 -10.3066,-4.4375 -3.1593,-1.2537 -5.9666,-2.41987 -8.4238,-3.49805 -2.4573,-1.07818 -4.5632,-2.06804 -6.3184,-2.9707 -0.8776,-0.45133 -1.7207,-0.93171 -2.5293,-1.43946 -0.8086,-0.50774 -1.5826,-1.04325 -2.3222,-1.60742 -0.7397,-0.56416 -1.4465,-1.15676 -2.1172,-1.77734 -0.6708,-0.62058 -1.3065,-1.26832 -1.9082,-1.94531 -0.5767,-0.677 -1.0812,-1.38882 -1.5137,-2.13477 -0.4325,-0.74595 -0.7937,-1.52689 -1.082,-2.3418 -0.2884,-0.8149 -0.5043,-1.66302 -0.6485,-2.54687 -0.1442,-0.88385 -0.2168,-1.80305 -0.2168,-2.75586 0,-0.71461 0.037,-1.40817 0.1074,-2.08203 0.071,-0.67386 0.1754,-1.32782 0.3165,-1.96094 0.141,-0.63311 0.3177,-1.24552 0.5293,-1.83789 0.2115,-0.59237 0.4581,-1.16517 0.7402,-1.7168 0.2821,-0.55162 0.5986,-1.08287 0.9512,-1.59375 0.3526,-0.51088 0.7409,-1.00056 1.164,-1.4707 0.4231,-0.47013 0.8814,-0.92022 1.375,-1.34961 0.4937,-0.42939 1.0237,-0.83792 1.5879,-1.22656 0.5767,-0.40118 1.1848,-0.77787 1.8242,-1.12891 0.6394,-0.35103 1.3097,-0.67763 2.0117,-0.97851 0.7021,-0.30089 1.4345,-0.57544 2.1993,-0.82618 0.7647,-0.25073 1.5612,-0.47714 2.3886,-0.67773 0.8275,-0.20059 1.6861,-0.3769 2.5762,-0.52734 0.8901,-0.15045 1.8128,-0.27471 2.7656,-0.375 0.9528,-0.1003 1.9357,-0.17642 2.9512,-0.22657 1.0155,-0.0501 2.0625,-0.0742 3.1406,-0.0742 1.5295,0 2.9963,0.0691 4.4004,0.20703 1.4042,0.1379 2.7466,0.34332 4.0254,0.61914 1.2788,0.27581 2.4951,0.62143 3.6485,1.03515 1.1533,0.41372 2.2434,0.89564 3.2714,1.44727 0.514,0.27581 0.9956,0.56784 1.4453,0.875 0.4498,0.30715 0.8684,0.63025 1.254,0.96875 0.3855,0.3385 0.7392,0.69266 1.0605,1.0625 0.3213,0.36984 0.6102,0.75507 0.8672,1.15625 0.257,0.40118 0.4811,0.81748 0.6738,1.25 0.1928,0.43252 0.3539,0.88184 0.4824,1.3457 0.1285,0.46387 0.2248,0.94229 0.2891,1.4375 0.064,0.49521 0.096,1.00665 0.096,1.53321 0,0.80236 -0.1502,2.70793 -0.4512,5.71679 -0.1504,0.80237 -0.2626,1.64195 -0.3379,2.51953 -0.075,0.87759 -0.1132,1.79329 -0.1132,2.7461 0,0.55162 0.053,1.08364 0.1601,1.59765 0.1066,0.51402 0.2654,1.00993 0.4785,1.48633 0.2132,0.47641 0.4811,0.93426 0.8008,1.37305 0.3197,0.43879 0.6909,0.85858 1.1172,1.25976 0.4513,0.40119 0.9282,0.75185 1.4297,1.05274 0.5015,0.30088 1.0284,0.55136 1.5801,0.75195 0.5516,0.20059 1.1287,0.35088 1.7304,0.45117 0.6018,0.1003 1.229,0.15235 1.8809,0.15235 0.4639,0 0.912,-0.026 1.3477,-0.0762 0.4356,-0.0502 0.8581,-0.12627 1.2656,-0.22657 0.4074,-0.10029 0.8004,-0.22455 1.1797,-0.375 0.3792,-0.15044 0.7446,-0.32675 1.0957,-0.52734 0.351,-0.20059 0.6889,-0.42504 1.0117,-0.67578 0.3228,-0.25074 0.6311,-0.52724 0.9258,-0.82813 0.2946,-0.30088 0.5753,-0.62748 0.8418,-0.97851 0.2664,-0.35104 0.5176,-0.72577 0.7558,-1.12696 0.4764,-0.80236 0.8927,-1.70253 1.25,-2.69921 0.3573,-0.99669 0.6564,-2.09025 0.8946,-3.28125 0.2382,-1.19101 0.416,-2.47991 0.5351,-3.86524 0.1191,-1.38533 0.1797,-2.86761 0.1797,-4.44726 0,-0.80237 -0.03,-1.58836 -0.088,-2.35938 -0.058,-0.77102 -0.1438,-1.5279 -0.2598,-2.26758 -0.1159,-0.73968 -0.2616,-1.46354 -0.4355,-2.17187 -0.174,-0.70834 -0.3774,-1.40113 -0.6094,-2.07813 -0.2319,-0.67699 -0.4933,-1.33677 -0.7832,-1.98242 -0.2899,-0.64565 -0.6072,-1.27631 -0.9551,-1.89062 -0.3479,-0.61431 -0.7249,-1.21391 -1.1308,-1.79688 -0.4059,-0.58297 -0.8408,-1.14955 -1.3047,-1.70117 -0.4513,-0.55163 -0.9236,-1.08598 -1.4141,-1.60156 -0.4905,-0.51559 -0.9996,-1.01265 -1.5293,-1.49219 -0.5297,-0.47954 -1.0795,-0.94127 -1.6484,-1.38477 -0.5689,-0.44349 -1.1576,-0.86794 -1.7656,-1.27539 -1.2161,-0.8149 -2.51,-1.55779 -3.8828,-2.22851 -1.3728,-0.67073 -2.8241,-1.27033 -4.3536,-1.79688 -1.5295,-0.55162 -3.0964,-1.03354 -4.7011,-1.44726 -1.6048,-0.41372 -3.2478,-0.75935 -4.9278,-1.03516 -1.6799,-0.27581 -3.3971,-0.48123 -5.1523,-0.61914 -1.7552,-0.13791 -3.5485,-0.20703 -5.3789,-0.20703 z"
       font-family="Pacifico"
       font-size="150.444px"
       letter-spacing="1.06251"
       style="line-height:130.886px;-inkscape-font-specification:Pacifico;text-align:center"
       text-anchor="middle"
       word-spacing="0.00940274"
       id="path8" /></g></svg>
